# xmcd
#
# Track frame offsets: 
#        150
#        19888
#        40004
#        55571
#
# Disc length: 1061 seconds
#
# Revision: 1
# Processed by: cddbd v1.5.2PL0 Copyright (c) Steve Scherf et al.
# Submitted via: ExactAudioCopy v0.99pb5
#
DISCID=25042304
DTITLE=Tenderloud - Tenderloud EP
DYEAR=2002
DGENRE=Country
TTITLE0=Memphis Station
TTITLE1=Texas Down
TTITLE2=Talk of Love
TTITLE3=Broken
EXTD=
EXTT0=
EXTT1=
EXTT2=
EXTT3=
PLAYORDER=
